<svg version="1.2" baseProfile="tiny-ps" xmlns="http://www.w3.org/2000/svg" viewBox="0 0 24 26" width="24" height="26">
	<title>image</title>
	<style>
		tspan { white-space:pre }
		.shp0 { fill: #ffffff } 
	</style>
	<path id="Layer" class="shp0" d="M1.3 10.83L11.29 0.83C11.88 0.24 12.84 0.25 13.42 0.83C14 1.42 14 2.37 13.42 2.96L3.42 12.95C2.84 13.54 1.89 13.54 1.3 12.95C0.71 12.36 0.71 11.41 1.3 10.83Z" />
	<path id="Layer" class="shp0" d="M14.16 4.34L14.24 4.71C14.77 7.36 16.05 9.88 17.79 11.92L12.36 17.36C10.32 15.62 7.83 14.3 5.18 13.77L4.8 13.69L14.16 4.34Z" />
	<path id="Layer" fill-rule="evenodd" class="shp0" d="M18.79 13.05L22.51 16.77C23.39 17.64 23.39 19.07 22.51 19.95L20.38 22.07C19.51 22.95 18.08 22.96 17.2 22.07L13.48 18.36L18.79 13.05ZM18.26 18.89C18.55 19.18 19.03 19.18 19.32 18.89C19.62 18.6 19.62 18.12 19.32 17.83L18.26 16.77C17.97 16.47 17.49 16.47 17.2 16.77C16.91 17.06 16.91 17.53 17.2 17.83L18.26 18.89Z" />
	<path id="Layer" class="shp0" d="M10.35 22.47L9.33 21.45C8.45 20.57 8.45 19.14 9.33 18.27L10.09 17.51C10.51 17.79 10.91 18.1 11.3 18.42L10.39 19.33C10.1 19.62 10.09 20.09 10.39 20.39L11.43 21.43L12.95 19.95L15.08 22.07L11.67 25.37C11.09 25.96 10.13 25.96 9.55 25.37C8.96 24.79 8.96 23.84 9.55 23.25L10.35 22.47Z" />
	<path id="Layer" class="shp0" d="M7.32 0.19C7.73 0.19 8.07 0.52 8.07 0.94L8.07 2.44C8.07 2.85 7.73 3.19 7.32 3.19C6.9 3.19 6.57 2.85 6.57 2.44L6.57 0.94C6.57 0.52 6.9 0.19 7.32 0.19Z" />
	<path id="Layer" class="shp0" d="M1.31 6.19L2.81 6.19C3.23 6.19 3.56 6.53 3.56 6.94C3.56 7.36 3.23 7.69 2.81 7.69L1.31 7.69C0.9 7.69 0.56 7.36 0.56 6.94C0.56 6.53 0.9 6.19 1.31 6.19Z" />
	<path id="Layer" class="shp0" d="M2.28 1.91C2.57 1.62 3.05 1.62 3.34 1.91L4.84 3.41C5.14 3.7 5.14 4.18 4.84 4.47C4.55 4.77 4.08 4.77 3.78 4.47L2.28 2.97C1.99 2.68 1.99 2.2 2.28 1.91Z" />
</svg>